<?xml version="1.0" encoding="UTF-8"?>
<svg xmlns="http://www.w3.org/2000/svg" xmlns:xlink="http://www.w3.org/1999/xlink" width="295.32pt" height="420.14pt" viewBox="0 0 295.32 420.14" version="1.1">
<defs>
<clipPath id="clip1">
  <path d="M 255 303 L 295.320313 303 L 295.320313 355 L 255 355 Z M 255 303 "/>
</clipPath>
<clipPath id="clip2">
  <path d="M 134 366 L 185 366 L 185 420.140625 L 134 420.140625 Z M 134 366 "/>
</clipPath>
<clipPath id="clip3">
  <path d="M 195 367 L 242 367 L 242 420.140625 L 195 420.140625 Z M 195 367 "/>
</clipPath>
</defs>
<g id="surface1">
<path style=" stroke:none;fill-rule:nonzero;fill:rgb(0%,44.299316%,71.398926%);fill-opacity:1;" d="M 36.925781 25.832031 C 36.925781 25.832031 59.925781 19 84.09375 26.167969 C 84.09375 26.167969 89.257813 7.5 91.59375 4.332031 L 83.59375 12.332031 L 82.925781 1.667969 L 71.261719 13.167969 L 60.59375 0 L 50.457031 13.167969 L 38.289063 1.667969 L 37.625 12.167969 L 29.957031 4.332031 C 29.957031 4.332031 35.261719 19.167969 36.925781 25.832031 "/>
<path style=" stroke:none;fill-rule:nonzero;fill:rgb(100%,100%,100%);fill-opacity:1;" d="M 41.257813 22.167969 L 49.425781 20.832031 L 41.257813 14.667969 L 41.257813 22.167969 "/>
<path style=" stroke:none;fill-rule:nonzero;fill:rgb(100%,100%,100%);fill-opacity:1;" d="M 79.757813 22.167969 L 71.59375 20.832031 L 79.757813 14.667969 L 79.757813 22.167969 "/>
<path style=" stroke:none;fill-rule:nonzero;fill:rgb(100%,100%,100%);fill-opacity:1;" d="M 60.457031 13.167969 L 67.09375 20.332031 L 54.257813 20.332031 L 60.457031 13.167969 "/>
<path style=" stroke:none;fill-rule:nonzero;fill:rgb(100%,100%,100%);fill-opacity:1;" d="M 137.09375 251.355469 C 137.09375 270.511719 121.5625 286.042969 102.40625 286.042969 C 83.246094 286.042969 67.71875 270.511719 67.71875 251.355469 C 67.71875 232.195313 83.246094 216.667969 102.40625 216.667969 C 121.5625 216.667969 137.09375 232.195313 137.09375 251.355469 "/>
<path style=" stroke:none;fill-rule:nonzero;fill:rgb(92.199707%,17.599487%,17.999268%);fill-opacity:1;" d="M 96.96875 234.167969 C 97.34375 237.667969 95.46875 252.792969 95.46875 252.792969 L 111.71875 259.417969 C 115.09375 257.292969 122.21875 247.542969 122.21875 247.542969 C 121.96875 241.292969 114.84375 231.167969 114.84375 231.167969 C 108.34375 230.417969 96.96875 234.167969 96.96875 234.167969 Z M 121.527344 277.34375 L 122.96875 270.917969 L 111.71875 268.667969 C 111.71875 268.667969 105.21875 275.417969 100.09375 277.917969 L 102.96875 282.992188 C 94.734375 282.921875 87.238281 279.777344 81.570313 274.644531 L 88.84375 274.542969 L 88.21875 258.042969 C 82.84375 257.042969 73.59375 251.167969 73.59375 251.167969 L 71.851563 258.34375 C 71.25 255.882813 70.925781 253.3125 70.925781 250.664063 C 70.925781 244.859375 72.464844 239.414063 75.144531 234.703125 L 76.59375 237.292969 L 91.46875 230.042969 L 92.09375 222.167969 L 89.84375 221.25 C 93.929688 219.382813 98.46875 218.332031 103.261719 218.332031 C 108.839844 218.332031 114.089844 219.746094 118.671875 222.234375 L 115.09375 223.667969 L 126.4375 228.132813 C 129.320313 231.097656 131.636719 234.609375 133.21875 238.5 L 128.21875 247.667969 L 133.648438 261.738281 C 131.320313 268.121094 127.039063 273.5625 121.527344 277.34375 Z M 101.175781 215.667969 C 80.695313 215.667969 64.09375 232.269531 64.09375 252.75 C 64.09375 273.230469 80.695313 289.832031 101.175781 289.832031 C 121.65625 289.832031 138.261719 273.230469 138.261719 252.75 C 138.261719 232.269531 121.65625 215.667969 101.175781 215.667969 "/>
<path style=" stroke:none;fill-rule:nonzero;fill:rgb(100%,100%,100%);fill-opacity:1;" d="M 102.496094 235.535156 L 114.675781 234.230469 L 120.679688 245.976563 L 113.371094 237.1875 L 102.496094 235.535156 "/>
<path style=" stroke:none;fill-rule:nonzero;fill:rgb(100%,100%,100%);fill-opacity:1;" d="M 114.328125 271.03125 L 121.464844 273.292969 L 119.027344 280.429688 L 118.507813 275.554688 L 114.328125 271.03125 "/>
<path style=" stroke:none;fill-rule:nonzero;fill:rgb(0%,44.299316%,71.398926%);fill-opacity:1;" d="M 64.257813 26.332031 L 63.59375 36.332031 L 71.09375 27.332031 C 71.09375 27.332031 80.925781 25.164063 87.425781 33.832031 C 87.425781 33.832031 96.757813 28 97.757813 40.667969 C 97.757813 40.667969 92.59375 35.664063 89.59375 40.832031 C 86.59375 46 87.925781 46 89.59375 45.332031 C 91.257813 44.667969 93.257813 42.667969 96.09375 44.667969 C 96.09375 44.667969 92.761719 50.167969 96.925781 55.167969 C 101.09375 60.167969 106.09375 67.167969 105.425781 73.5 C 105.425781 73.5 102.761719 70.332031 98.925781 72.167969 C 98.925781 72.167969 104.59375 77.332031 107.09375 83 C 109.59375 88.667969 113.761719 97 117.425781 99.5 L 106.761719 99.667969 C 106.761719 99.667969 114.09375 110.167969 129.09375 117.835938 C 144.09375 125.5 151.59375 130.667969 157.425781 135.335938 C 163.261719 140 174.59375 145.835938 186.925781 147.167969 C 199.261719 148.5 213.261719 151.667969 219.425781 160.835938 C 219.425781 160.835938 230.59375 160.667969 236.925781 152.667969 C 243.261719 144.667969 235.425781 134.335938 213.925781 134 C 192.425781 133.667969 189.761719 133.667969 189.761719 133.667969 C 189.761719 133.667969 178.925781 132.835938 170.925781 127.667969 C 162.925781 122.5 163.09375 110.835938 179.59375 105.167969 C 181.761719 104.335938 182.257813 103.667969 182.59375 102.167969 C 182.925781 100.667969 183.925781 95.332031 194.09375 94.5 C 194.09375 94.5 191.09375 99.5 195.261719 97 C 199.425781 94.5 208.925781 92 219.261719 98.5 C 219.261719 98.5 213.425781 97.832031 210.761719 101.5 C 208.09375 105.167969 200.425781 118 187.925781 113.335938 C 183.925781 111 180.757813 109.167969 175.59375 113.835938 C 170.425781 118.5 174.425781 126 186.761719 126 C 199.09375 126 178.59375 126 217.925781 126 C 257.261719 126 261.09375 160.835938 225.261719 170.167969 C 225.261719 170.167969 230.429688 181.167969 230.261719 193.5 C 230.09375 205.835938 229.761719 220.667969 229.761719 220.667969 C 229.761719 220.667969 229.59375 225.667969 232.09375 229.332031 C 234.59375 233 237.761719 238.667969 237.59375 240.667969 C 237.425781 242.667969 237.425781 262.667969 242.425781 269 C 247.425781 275.335938 250.261719 278 250.261719 279.5 C 250.261719 281 250.261719 286 250.261719 286 L 222.261719 286 L 222.261719 277.167969 C 222.261719 277.167969 225.761719 270.832031 226.261719 270.167969 C 226.761719 269.5 227.761719 266.832031 225.59375 262.167969 C 223.425781 257.5 216.59375 243.335938 215.425781 242.335938 C 214.261719 241.335938 195.425781 220.667969 190.925781 214.5 C 186.425781 208.335938 181.59375 208.667969 179.925781 217.335938 C 178.261719 226 182.425781 232.835938 182.425781 232.835938 L 188.261719 240.167969 C 188.261719 240.167969 195.09375 247.167969 191.261719 252.667969 C 187.425781 258.167969 181.261719 267 181.261719 267 C 181.261719 267 177.425781 273.835938 177.59375 275.667969 L 167.761719 286 L 140.925781 286 C 140.925781 286 140.761719 272.5 150.925781 272.5 C 161.09375 272.5 164.09375 269.167969 166.09375 264.835938 C 168.09375 260.5 170.425781 251.832031 169.09375 250.5 C 167.761719 249.167969 157.929688 241.667969 156.261719 240.167969 C 154.59375 238.667969 141.429688 227.667969 137.929688 214.835938 L 121.429688 216 L 118.59375 221 L 107.929688 221 C 107.929688 221 104.925781 216.5 100.59375 220.835938 L 93.925781 220.835938 L 91.425781 218 L 88.925781 218 C 88.925781 218 85.425781 222.5 81.925781 217 C 81.925781 217 67.09375 224.335938 61.59375 244.5 C 56.09375 264.667969 71.925781 283 71.925781 283 L 69.761719 286 L 35.59375 286 C 35.59375 286 35.09375 271.835938 46.925781 271.835938 C 55.59375 271.835938 55.925781 268.335938 55.925781 268.335938 C 55.925781 268.335938 56.261719 261 55.09375 258.167969 C 53.925781 255.335938 49.59375 243.5 49.09375 224.167969 C 49.09375 224.167969 39.09375 214.667969 38.425781 185.835938 C 38.425781 185.835938 32.59375 193.835938 23.261719 190.835938 C 23.261719 190.835938 35.59375 177 31.09375 156.5 C 31.09375 156.5 27.09375 164.5 18.59375 164.667969 C 18.59375 164.667969 22.761719 159.335938 23.59375 154.335938 C 24.425781 149.335938 22.925781 133 18.425781 146 C 18.425781 146 7.925781 132 19.09375 105.667969 C 19.09375 105.667969 11.261719 109.5 8.09375 120.167969 C 8.09375 120.167969 2.09375 97.164063 17.425781 85.832031 C 17.425781 85.832031 7.261719 86 5.261719 82.332031 C 5.261719 82.332031 15.925781 77.332031 17.925781 63.832031 C 19.925781 50.332031 24.425781 40 33.59375 47.832031 C 33.59375 47.832031 30.925781 33.5 22.425781 41.832031 C 22.425781 41.832031 23.09375 26.5 35.761719 37.332031 C 35.761719 37.332031 35.59375 33 33.261719 31.332031 C 33.261719 31.332031 42.425781 26 64.257813 26.332031 "/>
<path style=" stroke:none;fill-rule:nonzero;fill:rgb(100%,100%,100%);fill-opacity:1;" d="M 59.925781 120 C 59.925781 120 56.425781 126.835938 52.59375 130.335938 C 48.761719 133.835938 43.761719 142.335938 44.425781 147.167969 C 44.425781 147.167969 37.59375 136.335938 45.425781 130.5 C 53.261719 124.667969 59.925781 120 59.925781 120 "/>
<path style=" stroke:none;fill-rule:nonzero;fill:rgb(100%,100%,100%);fill-opacity:1;" d="M 72.59375 117.167969 C 72.59375 117.167969 70.925781 126 66.261719 133.335938 C 61.59375 140.667969 55.761719 152.335938 58.59375 163.167969 C 58.59375 163.167969 62.761719 149.5 70.09375 146.835938 C 70.09375 146.835938 76.09375 161 67.261719 174.835938 C 67.261719 174.835938 77.761719 172.835938 81.59375 155.335938 C 85.425781 137.835938 88.925781 132.835938 92.59375 132 C 92.59375 132 88.925781 146.335938 94.261719 150.167969 C 94.261719 150.167969 94.425781 143 98.425781 137.335938 C 102.429688 131.667969 108.09375 118.5 101.261719 104.667969 C 101.261719 104.667969 101.59375 119.835938 94.761719 124.167969 C 87.925781 128.5 77.09375 135.335938 75.425781 147.5 C 75.425781 147.5 69.59375 143.167969 72.425781 132.667969 C 75.261719 122.167969 73.425781 118.835938 72.59375 117.167969 "/>
<path style=" stroke:none;fill-rule:nonzero;fill:rgb(100%,100%,100%);fill-opacity:1;" d="M 59.09375 104.5 L 59.09375 96.167969 C 59.09375 96.167969 63.09375 96.5 63.09375 104.667969 L 69.757813 100.167969 C 69.757813 100.167969 73.761719 95.5 72.925781 90.667969 C 72.925781 90.667969 67.257813 88.5 66.257813 86 L 55.257813 86 C 55.257813 86 51.152344 90 47.621094 90.667969 L 47.621094 97.332031 L 59.09375 104.5 "/>
<path style=" stroke:none;fill-rule:nonzero;fill:rgb(100%,100%,100%);fill-opacity:1;" d="M 59.09375 76.832031 L 59.09375 81.5 L 51.757813 86.167969 C 51.757813 86.167969 41.425781 86.332031 43.757813 79.167969 C 46.09375 72 48.757813 69.667969 52.257813 72 C 55.757813 74.332031 59.09375 76.832031 59.09375 76.832031 "/>
<path style=" stroke:none;fill-rule:nonzero;fill:rgb(100%,100%,100%);fill-opacity:1;" d="M 83.761719 57 C 82.59375 54.167969 80.59375 56.167969 78.925781 58.167969 C 77.261719 60.167969 74.425781 58.832031 72.261719 58.332031 C 70.09375 57.832031 69.09375 62.667969 69.09375 62.667969 L 68.09375 62.667969 L 68.09375 56.667969 C 68.09375 56.667969 68.925781 56 71.59375 53.667969 C 74.257813 51.332031 78.425781 54 78.425781 54 L 83.261719 54 C 84.925781 40.667969 67.425781 40.167969 67.425781 40.167969 L 60.761719 49.332031 C 60.761719 49.332031 55.09375 41.667969 54.425781 40.332031 C 53.761719 39 43.925781 42.832031 43.925781 42.832031 L 43.925781 48.332031 L 36.261719 52 L 36.261719 53.832031 L 43.261719 53.832031 C 45.761719 51.667969 49.09375 53.667969 49.09375 53.667969 L 54.09375 57.5 L 54.09375 69.332031 C 60.59375 66.332031 69.761719 69.5 69.761719 69.5 L 69.671875 71.75 C 69.53125 71.828125 69.394531 71.902344 69.25 72 C 65.75 74.332031 62.414063 76.832031 62.414063 76.832031 L 62.414063 81.5 L 69.75 86.167969 C 69.75 86.167969 80.082031 86.332031 77.75 79.167969 C 76.804688 76.269531 75.804688 74.175781 74.722656 72.847656 L 74.925781 69.667969 C 74.925781 69.667969 81.59375 65.5 83.761719 64.167969 C 85.925781 62.832031 84.925781 59.832031 83.761719 57 "/>
<path style=" stroke:none;fill-rule:nonzero;fill:rgb(100%,100%,100%);fill-opacity:1;" d="M 50.09375 64.167969 C 50.09375 64.167969 46.261719 62 43.425781 63.832031 C 40.59375 65.667969 35.257813 66.667969 35.257813 63 C 35.257813 59.332031 36.09375 54.832031 36.09375 54.832031 L 37.925781 54.832031 L 42.59375 58.5 C 42.59375 58.5 43.59375 59.667969 45.425781 58.667969 C 47.257813 57.667969 50.09375 57.5 50.09375 60 C 50.09375 62.5 50.09375 64.167969 50.09375 64.167969 "/>
<path style=" stroke:none;fill-rule:nonzero;fill:rgb(100%,100%,100%);fill-opacity:1;" d="M 141.425781 190.335938 C 141.425781 190.335938 135.925781 162.5 147.261719 163.167969 C 147.261719 163.167969 143.261719 188.167969 165.261719 182.335938 C 187.261719 176.5 189.925781 185.335938 191.59375 189.335938 C 193.261719 193.335938 195.59375 193.335938 195.925781 188.5 C 196.261719 183.667969 195.425781 175.667969 193.09375 171.667969 C 190.761719 167.667969 192.59375 166.667969 196.925781 168.835938 C 201.261719 171 212.757813 182.167969 215.59375 192.5 C 218.425781 202.835938 223.09375 201.667969 223.59375 192.5 C 224.09375 183.335938 219.425781 158.835938 191.09375 154.835938 C 162.761719 150.835938 147.757813 139.835938 140.59375 134.835938 C 133.425781 129.835938 116.59375 121.835938 112.925781 134.5 C 110.425781 146.667969 115.59375 155.167969 115.59375 155.167969 C 115.59375 155.167969 117.925781 163 115.761719 166.835938 C 113.59375 170.667969 111.761719 174.167969 114.425781 175.835938 C 117.09375 177.5 119.09375 179.835938 114.925781 182.5 C 110.761719 185.167969 103.59375 189.667969 109.09375 190.835938 C 114.59375 192 116.59375 194.335938 108.925781 197.5 C 108.925781 197.5 96.925781 197.5 94.261719 197.5 C 91.59375 197.5 85.425781 200 83.761719 207.335938 C 82.09375 214.667969 88.425781 213.5 92.425781 209.667969 C 92.425781 209.667969 90.925781 215.167969 94.761719 215.167969 C 98.59375 215.167969 99.59375 215.167969 99.59375 215.167969 C 99.59375 215.167969 104.261719 214.167969 105.925781 210 C 105.925781 210 105.59375 215.167969 108.925781 215.167969 C 112.261719 215.167969 114.425781 215.167969 114.425781 215.167969 C 114.425781 215.167969 116.59375 214.667969 117.261719 211.667969 C 117.925781 208.667969 121.261719 206.5 124.925781 206.5 L 141.425781 190.335938 "/>
<path style=" stroke:none;fill-rule:nonzero;fill:rgb(0%,44.299316%,71.398926%);fill-opacity:1;" d="M 22.476563 312.792969 C 22.046875 311.488281 21.464844 310.445313 20.730469 309.667969 C 19.996094 308.890625 19.136719 308.324219 18.148438 307.972656 C 17.15625 307.621094 16.132813 307.445313 15.070313 307.445313 L 13.320313 307.445313 C 13.066406 307.445313 12.8125 307.445313 12.558594 307.445313 C 12.304688 307.445313 12.078125 307.46875 11.875 307.519531 C 11.832031 311.136719 11.800781 314.691406 11.78125 318.183594 C 11.761719 321.675781 11.75 325.179688 11.75 328.695313 C 13.015625 328.695313 14.316406 328.570313 15.65625 328.316406 C 16.992188 328.066406 18.21875 327.550781 19.332031 326.773438 C 20.445313 325.996094 21.355469 324.875 22.0625 323.417969 C 22.769531 321.960938 23.125 320.027344 23.125 317.617188 C 23.125 315.707031 22.90625 314.101563 22.476563 312.792969 Z M 0.46875 312.925781 C 0.363281 309.695313 0.207031 306.453125 0 303.195313 C 0.855469 303.296875 1.785156 303.382813 2.792969 303.457031 C 3.792969 303.53125 4.925781 303.570313 6.1875 303.570313 C 7.945313 303.570313 9.769531 303.507813 11.65625 303.382813 C 13.539063 303.257813 15.386719 303.195313 17.199219 303.195313 C 20.769531 303.195313 23.558594 303.457031 25.570313 303.984375 C 27.582031 304.511719 29.164063 305.277344 30.324219 306.28125 C 31.929688 307.589844 33.113281 309.046875 33.867188 310.652344 C 34.621094 312.257813 35 314.191406 35 316.449219 C 35 319.3125 34.523438 321.773438 33.566406 323.832031 C 32.605469 325.890625 31.261719 327.5625 29.527344 328.839844 C 27.789063 330.121094 25.738281 331.0625 23.375 331.664063 C 21.007813 332.269531 18.414063 332.570313 15.597656 332.570313 L 11.75 332.570313 C 11.75 336.316406 11.789063 340.050781 11.867188 343.769531 C 11.945313 347.492188 12.113281 351.175781 12.375 354.820313 C 11.519531 354.734375 10.589844 354.695313 9.582031 354.695313 C 8.574219 354.695313 7.445313 354.695313 6.1875 354.695313 C 4.929688 354.695313 3.796875 354.695313 2.792969 354.695313 C 1.785156 354.695313 0.855469 354.734375 0 354.820313 C 0.207031 351.714844 0.363281 348.546875 0.46875 345.3125 C 0.570313 342.082031 0.625 338.386719 0.625 334.230469 L 0.625 324.007813 C 0.625 319.851563 0.570313 316.15625 0.46875 312.925781 "/>
<path style=" stroke:none;fill-rule:nonzero;fill:rgb(0%,44.299316%,71.398926%);fill-opacity:1;" d="M 65.546875 312.035156 C 65.097656 310.730469 64.410156 309.742188 63.484375 309.0625 C 62.558594 308.386719 61.359375 307.949219 59.886719 307.746094 C 58.410156 307.546875 56.648438 307.445313 54.597656 307.445313 C 54.429688 314.269531 54.347656 321.089844 54.347656 327.914063 C 54.648438 327.964844 54.9375 328.003906 55.210938 328.027344 C 55.488281 328.050781 55.75 328.0625 56.003906 328.0625 C 59.308594 328.0625 61.839844 327.175781 63.59375 325.394531 C 65.347656 323.613281 66.222656 320.917969 66.222656 317.304688 C 66.222656 315.097656 65.996094 313.339844 65.546875 312.035156 Z M 54.347656 331.117188 L 54.347656 334.199219 C 54.347656 338.363281 54.398438 342.066406 54.503906 345.300781 C 54.609375 348.535156 54.765625 351.710938 54.972656 354.820313 C 54.117188 354.734375 53.1875 354.695313 52.179688 354.695313 C 51.175781 354.695313 50.042969 354.695313 48.785156 354.695313 C 47.527344 354.695313 46.394531 354.695313 45.390625 354.695313 C 44.382813 354.695313 43.453125 354.734375 42.597656 354.820313 C 42.804688 351.714844 42.960938 348.546875 43.066406 345.3125 C 43.171875 342.082031 43.222656 338.386719 43.222656 334.230469 L 43.222656 324.007813 C 43.222656 319.851563 43.171875 316.15625 43.066406 312.925781 C 42.960938 309.695313 42.804688 306.453125 42.597656 303.195313 C 43.449219 303.296875 44.378906 303.382813 45.382813 303.457031 C 46.382813 303.53125 47.511719 303.570313 48.765625 303.570313 C 50.121094 303.570313 51.660156 303.507813 53.390625 303.382813 C 55.121094 303.257813 57.265625 303.195313 59.824219 303.195313 C 61.726563 303.195313 63.355469 303.246094 64.710938 303.34375 C 66.066406 303.445313 67.230469 303.597656 68.207031 303.796875 C 69.183594 303.996094 70.039063 304.261719 70.765625 304.585938 C 71.492188 304.910156 72.183594 305.300781 72.835938 305.75 C 74.339844 306.851563 75.527344 308.21875 76.40625 309.84375 C 77.285156 311.472656 77.722656 313.414063 77.722656 315.667969 C 77.722656 319.324219 76.71875 322.304688 74.714844 324.609375 C 72.707031 326.914063 69.824219 328.542969 66.066406 329.496094 C 68.472656 333.753906 71.054688 338 73.816406 342.234375 C 76.574219 346.46875 79.332031 350.664063 82.09375 354.820313 C 80.9375 354.734375 79.808594 354.695313 78.707031 354.695313 C 77.601563 354.695313 76.472656 354.695313 75.320313 354.695313 C 74.164063 354.695313 73.023438 354.695313 71.894531 354.695313 C 70.765625 354.695313 69.625 354.734375 68.472656 354.820313 L 55.023438 331.117188 L 54.347656 331.117188 "/>
<path style=" stroke:none;fill-rule:nonzero;fill:rgb(0%,44.299316%,71.398926%);fill-opacity:1;" d="M 88.210938 312.925781 C 88.128906 309.695313 88.003906 306.453125 87.835938 303.195313 C 90.09375 303.246094 92.328125 303.320313 94.535156 303.417969 C 96.746094 303.519531 98.980469 303.570313 101.242188 303.570313 C 104.953125 303.570313 108.25 303.53125 111.136719 303.457031 C 114.019531 303.382813 115.964844 303.296875 116.96875 303.195313 C 116.765625 303.992188 116.667969 305.039063 116.667969 306.332031 C 116.667969 307.128906 116.691406 307.753906 116.742188 308.199219 C 116.792969 308.648438 116.867188 309.148438 116.96875 309.695313 C 115.511719 309.59375 113.921875 309.496094 112.191406 309.394531 C 110.460938 309.292969 108.777344 309.195313 107.148438 309.09375 C 105.515625 308.992188 104.050781 308.917969 102.746094 308.867188 C 101.441406 308.816406 100.511719 308.792969 99.960938 308.792969 C 99.761719 311.550781 99.648438 314.285156 99.621094 316.992188 C 99.597656 319.703125 99.585938 322.4375 99.585938 325.195313 C 102.847656 325.144531 105.796875 325.066406 108.429688 324.960938 C 111.0625 324.855469 113.808594 324.726563 116.667969 324.570313 C 116.519531 325.425781 116.417969 326.082031 116.367188 326.535156 C 116.316406 326.988281 116.292969 327.464844 116.292969 327.96875 C 116.292969 328.375 116.332031 328.789063 116.40625 329.21875 C 116.480469 329.648438 116.566406 330.265625 116.667969 331.070313 C 110.949219 330.652344 105.253906 330.445313 99.585938 330.445313 C 99.585938 332.046875 99.566406 333.648438 99.523438 335.25 C 99.480469 336.851563 99.460938 338.457031 99.460938 340.058594 C 99.460938 343.3125 99.542969 346.441406 99.710938 349.445313 C 102.570313 349.445313 105.433594 349.367188 108.292969 349.210938 C 111.152344 349.054688 114.035156 348.796875 116.945313 348.433594 C 116.84375 348.984375 116.769531 349.484375 116.71875 349.9375 C 116.667969 350.386719 116.644531 351.011719 116.644531 351.8125 C 116.644531 352.617188 116.667969 353.242188 116.71875 353.691406 C 116.769531 354.144531 116.84375 354.519531 116.945313 354.820313 C 115.589844 354.777344 113.921875 354.746094 111.941406 354.726563 C 109.957031 354.703125 107.238281 354.695313 103.777344 354.695313 C 100.714844 354.695313 98.230469 354.695313 96.328125 354.695313 C 94.472656 354.695313 92.984375 354.695313 91.855469 354.695313 C 90.726563 354.695313 89.878906 354.703125 89.300781 354.726563 C 88.722656 354.746094 88.234375 354.777344 87.835938 354.820313 C 88.003906 351.714844 88.128906 348.546875 88.210938 345.3125 C 88.292969 342.082031 88.335938 338.386719 88.335938 334.230469 L 88.335938 324.007813 C 88.335938 319.851563 88.292969 316.15625 88.210938 312.925781 "/>
<path style=" stroke:none;fill-rule:nonzero;fill:rgb(0%,44.299316%,71.398926%);fill-opacity:1;" d="M 131.003906 337.988281 C 130.601563 343.597656 130.203125 349.210938 129.800781 354.820313 C 129.199219 354.734375 128.597656 354.695313 127.996094 354.695313 C 127.394531 354.695313 126.816406 354.695313 126.265625 354.695313 C 125.664063 354.695313 125.074219 354.695313 124.496094 354.695313 C 123.917969 354.695313 123.328125 354.734375 122.726563 354.820313 C 124.332031 346.203125 125.761719 337.636719 127.015625 329.121094 C 128.269531 320.605469 129.425781 311.960938 130.480469 303.195313 C 131.03125 303.296875 131.546875 303.382813 132.023438 303.457031 C 132.5 303.53125 133.011719 303.570313 133.566406 303.570313 C 134.015625 303.570313 134.492188 303.53125 134.992188 303.457031 C 135.496094 303.382813 136.023438 303.296875 136.574219 303.195313 C 137.929688 306.199219 139.34375 309.257813 140.824219 312.363281 C 142.304688 315.46875 143.785156 318.5625 145.265625 321.644531 C 146.746094 324.726563 148.222656 327.742188 149.703125 330.699219 C 151.183594 333.65625 152.601563 336.460938 153.957031 339.113281 C 156.964844 333.503906 159.964844 327.628906 162.949219 321.492188 C 165.933594 315.355469 168.78125 309.257813 171.492188 303.195313 C 172.746094 303.445313 173.824219 303.570313 174.726563 303.570313 C 175.578125 303.570313 176.632813 303.445313 177.886719 303.195313 C 178.386719 307.503906 178.925781 312.136719 179.503906 317.097656 C 180.082031 322.058594 180.644531 326.902344 181.199219 331.636719 C 181.75 336.371094 182.300781 340.792969 182.851563 344.898438 C 183.402344 349.007813 183.90625 352.316406 184.359375 354.820313 C 183.355469 354.734375 182.335938 354.695313 181.308594 354.695313 C 180.28125 354.695313 179.265625 354.695313 178.261719 354.695313 C 177.257813 354.695313 176.230469 354.695313 175.175781 354.695313 C 174.121094 354.695313 173.070313 354.734375 172.015625 354.820313 C 171.765625 349.660156 171.351563 344.074219 170.777344 338.0625 C 170.199219 332.050781 169.609375 326.089844 169.007813 320.175781 L 168.855469 320.175781 C 165.996094 326.089844 163.1875 331.898438 160.429688 337.609375 C 157.667969 343.320313 154.933594 349.058594 152.226563 354.820313 C 151.976563 354.777344 151.738281 354.746094 151.511719 354.726563 C 151.285156 354.703125 151.046875 354.695313 150.796875 354.695313 C 150.546875 354.695313 150.308594 354.703125 150.082031 354.726563 C 149.855469 354.746094 149.617188 354.777344 149.367188 354.820313 C 146.65625 349.210938 143.960938 343.597656 141.277344 337.988281 C 138.59375 332.378906 135.820313 326.691406 132.960938 320.929688 L 132.8125 320.929688 C 132.007813 326.691406 131.40625 332.378906 131.003906 337.988281 "/>
<path style=" stroke:none;fill-rule:nonzero;fill:rgb(0%,44.299316%,71.398926%);fill-opacity:1;" d="M 193.851563 312.925781 C 193.746094 309.695313 193.589844 306.453125 193.382813 303.195313 C 194.238281 303.296875 195.167969 303.382813 196.171875 303.457031 C 197.179688 303.53125 198.3125 303.570313 199.570313 303.570313 C 200.828125 303.570313 201.957031 303.53125 202.964844 303.457031 C 203.96875 303.382813 204.902344 303.296875 205.757813 303.195313 C 205.546875 306.453125 205.390625 309.695313 205.289063 312.925781 C 205.183594 316.15625 205.132813 319.851563 205.132813 324.007813 L 205.132813 334.230469 C 205.132813 338.386719 205.183594 342.082031 205.289063 345.3125 C 205.390625 348.546875 205.546875 351.714844 205.757813 354.820313 C 204.902344 354.734375 203.96875 354.695313 202.964844 354.695313 C 201.957031 354.695313 200.828125 354.695313 199.570313 354.695313 C 198.3125 354.695313 197.179688 354.695313 196.171875 354.695313 C 195.167969 354.695313 194.238281 354.734375 193.382813 354.820313 C 193.589844 351.714844 193.746094 348.546875 193.851563 345.3125 C 193.953125 342.082031 194.007813 338.386719 194.007813 334.230469 L 194.007813 324.007813 C 194.007813 319.851563 193.953125 316.15625 193.851563 312.925781 "/>
<path style=" stroke:none;fill-rule:nonzero;fill:rgb(0%,44.299316%,71.398926%);fill-opacity:1;" d="M 217.820313 312.925781 C 217.734375 309.695313 217.609375 306.453125 217.445313 303.195313 C 219.703125 303.246094 221.9375 303.320313 224.144531 303.417969 C 226.355469 303.519531 228.589844 303.570313 230.847656 303.570313 C 234.558594 303.570313 237.859375 303.53125 240.742188 303.457031 C 243.628906 303.382813 245.570313 303.296875 246.574219 303.195313 C 246.375 303.992188 246.273438 305.039063 246.273438 306.332031 C 246.273438 307.128906 246.296875 307.753906 246.347656 308.199219 C 246.398438 308.648438 246.472656 309.148438 246.574219 309.695313 C 245.121094 309.59375 243.527344 309.496094 241.796875 309.394531 C 240.066406 309.292969 238.386719 309.195313 236.753906 309.09375 C 235.125 308.992188 233.65625 308.917969 232.351563 308.867188 C 231.046875 308.816406 230.121094 308.792969 229.570313 308.792969 C 229.367188 311.550781 229.253906 314.285156 229.230469 316.992188 C 229.207031 319.703125 229.195313 322.4375 229.195313 325.195313 C 232.457031 325.144531 235.402344 325.066406 238.035156 324.960938 C 240.667969 324.855469 243.417969 324.726563 246.277344 324.570313 C 246.125 325.425781 246.027344 326.082031 245.976563 326.535156 C 245.925781 326.988281 245.902344 327.464844 245.902344 327.96875 C 245.902344 328.375 245.9375 328.789063 246.011719 329.21875 C 246.085938 329.648438 246.175781 330.265625 246.277344 331.070313 C 240.558594 330.652344 234.863281 330.445313 229.195313 330.445313 C 229.195313 332.046875 229.171875 333.648438 229.132813 335.25 C 229.089844 336.851563 229.070313 338.457031 229.070313 340.058594 C 229.070313 343.3125 229.152344 346.441406 229.320313 349.445313 C 232.179688 349.445313 235.039063 349.367188 237.898438 349.210938 C 240.757813 349.054688 243.640625 348.796875 246.550781 348.433594 C 246.449219 348.984375 246.375 349.484375 246.324219 349.9375 C 246.273438 350.386719 246.25 351.011719 246.25 351.8125 C 246.25 352.617188 246.273438 353.242188 246.324219 353.691406 C 246.375 354.144531 246.449219 354.519531 246.550781 354.820313 C 245.195313 354.777344 243.527344 354.746094 241.546875 354.726563 C 239.566406 354.703125 236.84375 354.695313 233.382813 354.695313 C 230.324219 354.695313 227.839844 354.695313 225.9375 354.695313 C 224.085938 354.695313 222.59375 354.695313 221.464844 354.695313 C 220.335938 354.695313 219.484375 354.703125 218.910156 354.726563 C 218.335938 354.746094 217.84375 354.777344 217.445313 354.820313 C 217.609375 351.714844 217.734375 348.546875 217.820313 345.3125 C 217.902344 342.082031 217.945313 338.386719 217.945313 334.230469 L 217.945313 324.007813 C 217.945313 319.851563 217.902344 316.15625 217.820313 312.925781 "/>
<g clip-path="url(#clip1)" clip-rule="nonzero">
<path style=" stroke:none;fill-rule:nonzero;fill:rgb(0%,44.299316%,71.398926%);fill-opacity:1;" d="M 278.777344 312.035156 C 278.328125 310.730469 277.640625 309.742188 276.714844 309.0625 C 275.789063 308.386719 274.589844 307.949219 273.113281 307.746094 C 271.636719 307.546875 269.875 307.445313 267.828125 307.445313 C 267.660156 314.269531 267.578125 321.089844 267.578125 327.914063 C 267.878906 327.964844 268.164063 328.003906 268.441406 328.027344 C 268.714844 328.050781 268.980469 328.0625 269.230469 328.0625 C 272.535156 328.0625 275.066406 327.175781 276.820313 325.394531 C 278.574219 323.613281 279.453125 320.917969 279.453125 317.304688 C 279.453125 315.097656 279.226563 313.339844 278.777344 312.035156 Z M 267.578125 331.117188 L 267.578125 334.199219 C 267.578125 338.363281 267.628906 342.066406 267.734375 345.300781 C 267.835938 348.535156 267.992188 351.710938 268.203125 354.820313 C 267.347656 354.734375 266.414063 354.695313 265.410156 354.695313 C 264.402344 354.695313 263.273438 354.695313 262.015625 354.695313 C 260.757813 354.695313 259.625 354.695313 258.617188 354.695313 C 257.613281 354.695313 256.683594 354.734375 255.828125 354.820313 C 256.035156 351.714844 256.191406 348.546875 256.296875 345.3125 C 256.398438 342.082031 256.453125 338.386719 256.453125 334.230469 L 256.453125 324.007813 C 256.453125 319.851563 256.398438 316.15625 256.296875 312.925781 C 256.191406 309.695313 256.035156 306.453125 255.828125 303.195313 C 256.679688 303.296875 257.605469 303.382813 258.609375 303.457031 C 259.613281 303.53125 260.742188 303.570313 261.996094 303.570313 C 263.347656 303.570313 264.890625 303.507813 266.621094 303.382813 C 268.351563 303.257813 270.492188 303.195313 273.050781 303.195313 C 274.957031 303.195313 276.585938 303.246094 277.941406 303.34375 C 279.292969 303.445313 280.460938 303.597656 281.4375 303.796875 C 282.414063 303.996094 283.265625 304.261719 283.992188 304.585938 C 284.71875 304.910156 285.410156 305.300781 286.0625 305.75 C 287.566406 306.851563 288.757813 308.21875 289.636719 309.84375 C 290.511719 311.472656 290.953125 313.414063 290.953125 315.667969 C 290.953125 319.324219 289.949219 322.304688 287.941406 324.609375 C 285.9375 326.914063 283.054688 328.542969 279.292969 329.496094 C 281.699219 333.753906 284.285156 338 287.042969 342.234375 C 289.800781 346.46875 292.5625 350.664063 295.320313 354.820313 C 294.167969 354.734375 293.039063 354.695313 291.933594 354.695313 C 290.832031 354.695313 289.703125 354.695313 288.546875 354.695313 C 287.394531 354.695313 286.253906 354.695313 285.125 354.695313 C 283.996094 354.695313 282.855469 354.734375 281.699219 354.820313 L 268.253906 331.117188 L 267.578125 331.117188 "/>
</g>
<path style=" stroke:none;fill-rule:nonzero;fill:rgb(0%,44.299316%,71.398926%);fill-opacity:1;" d="M 11.640625 377.246094 C 11.535156 374.015625 11.378906 370.773438 11.171875 367.515625 C 12.027344 367.617188 12.957031 367.703125 13.964844 367.777344 C 14.96875 367.851563 16.101563 367.890625 17.359375 367.890625 C 18.617188 367.890625 19.75 367.851563 20.753906 367.777344 C 21.761719 367.703125 22.691406 367.617188 23.546875 367.515625 C 23.339844 370.773438 23.183594 374.019531 23.078125 377.253906 C 22.972656 380.488281 22.921875 384.1875 22.921875 388.347656 L 22.921875 398.574219 C 22.921875 401.433594 22.933594 404.191406 22.953125 406.847656 C 22.972656 409.503906 23.003906 411.808594 23.046875 413.765625 C 25.90625 413.765625 28.765625 413.6875 31.625 413.53125 C 34.484375 413.375 37.371094 413.117188 40.28125 412.753906 C 40.179688 413.304688 40.105469 413.804688 40.054688 414.257813 C 40.003906 414.707031 39.980469 415.332031 39.980469 416.132813 C 39.980469 416.9375 40.003906 417.5625 40.054688 418.011719 C 40.105469 418.464844 40.179688 418.839844 40.28125 419.140625 C 38.925781 419.097656 37.257813 419.066406 35.277344 419.046875 C 33.292969 419.023438 30.574219 419.015625 27.113281 419.015625 C 24.050781 419.015625 21.570313 419.015625 19.664063 419.015625 C 17.8125 419.015625 16.320313 419.015625 15.195313 419.015625 C 14.066406 419.015625 13.214844 419.023438 12.636719 419.046875 C 12.0625 419.066406 11.574219 419.097656 11.171875 419.140625 C 11.378906 416.035156 11.535156 412.867188 11.640625 409.632813 C 11.746094 406.402344 11.796875 402.707031 11.796875 398.550781 L 11.796875 388.328125 C 11.796875 384.171875 11.746094 380.476563 11.640625 377.246094 "/>
<path style=" stroke:none;fill-rule:nonzero;fill:rgb(0%,44.299316%,71.398926%);fill-opacity:1;" d="M 48.429688 377.246094 C 48.347656 374.015625 48.222656 370.773438 48.054688 367.515625 C 50.316406 367.566406 52.546875 367.640625 54.757813 367.738281 C 56.96875 367.839844 59.203125 367.890625 61.460938 367.890625 C 65.171875 367.890625 68.46875 367.851563 71.355469 367.777344 C 74.238281 367.703125 76.183594 367.617188 77.1875 367.515625 C 76.984375 368.3125 76.886719 369.359375 76.886719 370.652344 C 76.886719 371.449219 76.910156 372.074219 76.960938 372.519531 C 77.011719 372.96875 77.085938 373.46875 77.1875 374.015625 C 75.730469 373.914063 74.140625 373.816406 72.410156 373.714844 C 70.679688 373.613281 68.996094 373.515625 67.367188 373.414063 C 65.734375 373.3125 64.269531 373.238281 62.964844 373.1875 C 61.660156 373.136719 60.730469 373.113281 60.179688 373.113281 C 59.980469 375.871094 59.867188 378.605469 59.84375 381.3125 C 59.820313 384.023438 59.804688 386.757813 59.804688 389.515625 C 63.070313 389.464844 66.015625 389.386719 68.648438 389.28125 C 71.28125 389.175781 74.03125 389.046875 76.890625 388.890625 C 76.738281 389.746094 76.640625 390.402344 76.589844 390.855469 C 76.535156 391.308594 76.515625 391.785156 76.515625 392.289063 C 76.515625 392.695313 76.550781 393.109375 76.625 393.539063 C 76.699219 393.96875 76.785156 394.585938 76.890625 395.390625 C 71.167969 394.972656 65.472656 394.765625 59.804688 394.765625 C 59.804688 396.367188 59.785156 397.96875 59.742188 399.570313 C 59.703125 401.171875 59.679688 402.777344 59.679688 404.378906 C 59.679688 407.632813 59.765625 410.761719 59.929688 413.765625 C 62.789063 413.765625 65.652344 413.6875 68.511719 413.53125 C 71.371094 413.375 74.253906 413.117188 77.164063 412.753906 C 77.0625 413.304688 76.988281 413.804688 76.9375 414.257813 C 76.886719 414.707031 76.863281 415.332031 76.863281 416.132813 C 76.863281 416.9375 76.886719 417.5625 76.9375 418.011719 C 76.988281 418.464844 77.0625 418.839844 77.164063 419.140625 C 75.808594 419.097656 74.140625 419.066406 72.160156 419.046875 C 70.175781 419.023438 67.457031 419.015625 63.996094 419.015625 C 60.933594 419.015625 58.453125 419.015625 56.546875 419.015625 C 54.695313 419.015625 53.207031 419.015625 52.078125 419.015625 C 50.949219 419.015625 50.097656 419.023438 49.523438 419.046875 C 48.945313 419.066406 48.457031 419.097656 48.054688 419.140625 C 48.222656 416.035156 48.347656 412.867188 48.429688 409.632813 C 48.515625 406.402344 48.554688 402.707031 48.554688 398.550781 L 48.554688 388.328125 C 48.554688 384.171875 48.515625 380.476563 48.429688 377.246094 "/>
<path style=" stroke:none;fill-rule:nonzero;fill:rgb(0%,44.299316%,71.398926%);fill-opacity:1;" d="M 102.816406 381.640625 C 101.511719 384.644531 100.28125 387.613281 99.128906 390.542969 C 97.972656 393.472656 96.84375 396.460938 95.742188 399.515625 L 109.511719 399.515625 C 108.40625 396.460938 107.316406 393.472656 106.238281 390.542969 C 105.160156 387.613281 104.019531 384.644531 102.816406 381.640625 Z M 129.453125 419.140625 C 128.25 419.054688 127.105469 419.015625 126.027344 419.015625 C 124.949219 419.015625 123.882813 419.015625 122.832031 419.015625 C 121.777344 419.015625 120.710938 419.015625 119.632813 419.015625 C 118.554688 419.015625 117.488281 419.054688 116.433594 419.140625 C 115.632813 416.695313 114.804688 414.199219 113.953125 411.652344 C 113.097656 409.105469 112.195313 406.5625 111.242188 404.015625 C 109.636719 403.972656 108.03125 403.941406 106.425781 403.921875 C 104.820313 403.902344 103.214844 403.890625 101.609375 403.890625 C 100.304688 403.890625 99.003906 403.902344 97.699219 403.921875 C 96.394531 403.941406 95.089844 403.972656 93.785156 404.015625 C 92.78125 406.5625 91.851563 409.105469 91 411.652344 C 90.148438 414.199219 89.371094 416.695313 88.667969 419.140625 C 88.066406 419.054688 87.476563 419.015625 86.898438 419.015625 C 86.320313 419.015625 85.734375 419.015625 85.132813 419.015625 C 84.527344 419.015625 83.925781 419.015625 83.324219 419.015625 C 82.722656 419.015625 82.070313 419.054688 81.367188 419.140625 C 81.96875 417.839844 82.773438 416.035156 83.777344 413.730469 C 84.78125 411.425781 85.882813 408.820313 87.085938 405.914063 C 88.289063 403.007813 89.582031 399.890625 90.960938 396.558594 C 92.339844 393.226563 93.722656 389.859375 95.101563 386.453125 C 96.480469 383.046875 97.835938 379.691406 99.164063 376.382813 C 100.492188 373.078125 101.710938 369.996094 102.816406 367.140625 C 103.316406 367.242188 103.792969 367.328125 104.246094 367.402344 C 104.695313 367.476563 105.171875 367.515625 105.675781 367.515625 C 106.175781 367.515625 106.652344 367.476563 107.105469 367.402344 C 107.554688 367.328125 108.03125 367.242188 108.535156 367.140625 C 110.140625 371.398438 111.855469 375.957031 113.6875 380.816406 C 115.519531 385.675781 117.363281 390.449219 119.21875 395.132813 C 121.074219 399.816406 122.882813 404.261719 124.636719 408.46875 C 126.390625 412.679688 127.996094 416.234375 129.453125 419.140625 "/>
<g clip-path="url(#clip2)" clip-rule="nonzero">
<path style=" stroke:none;fill-rule:nonzero;fill:rgb(0%,44.299316%,71.398926%);fill-opacity:1;" d="M 174.199219 373.210938 C 171.789063 371.832031 168.847656 371.140625 165.382813 371.140625 C 163.070313 371.140625 160.773438 371.628906 158.488281 372.605469 C 156.203125 373.582031 154.167969 375.050781 152.382813 377.003906 C 150.601563 378.957031 149.15625 381.402344 148.050781 384.332031 C 146.945313 387.265625 146.394531 390.710938 146.394531 394.667969 C 146.394531 397.675781 146.808594 400.457031 147.636719 403.011719 C 148.464844 405.566406 149.65625 407.785156 151.210938 409.664063 C 152.765625 411.542969 154.675781 413.011719 156.933594 414.0625 C 159.191406 415.113281 161.777344 415.640625 164.6875 415.640625 C 165.339844 415.640625 166.082031 415.601563 166.910156 415.527344 C 167.738281 415.453125 168.539063 415.367188 169.316406 415.265625 C 170.09375 415.164063 170.8125 415.027344 171.464844 414.851563 C 172.117188 414.679688 172.59375 414.492188 172.894531 414.289063 C 173.003906 413.691406 173.074219 412.941406 173.101563 412.042969 C 173.128906 411.144531 173.144531 410.144531 173.144531 409.042969 C 173.144531 404.996094 173.070313 402.007813 172.929688 400.082031 C 172.785156 398.160156 172.691406 396.847656 172.644531 396.148438 C 173.140625 396.25 173.800781 396.339844 174.625 396.414063 C 175.449219 396.488281 176.632813 396.523438 178.179688 396.523438 C 179.976563 396.523438 181.308594 396.488281 182.183594 396.414063 C 183.054688 396.339844 183.742188 396.25 184.246094 396.148438 C 184.144531 396.550781 184.054688 397.199219 183.980469 398.101563 C 183.90625 399.003906 183.84375 400.046875 183.792969 401.222656 C 183.742188 402.402344 183.703125 403.65625 183.679688 404.984375 C 183.65625 406.3125 183.644531 407.578125 183.644531 408.78125 L 183.644531 411.265625 C 183.644531 412.519531 183.65625 413.683594 183.683594 414.761719 C 183.710938 415.839844 183.78125 416.605469 183.894531 417.054688 C 180.578125 418.007813 177.226563 418.761719 173.835938 419.3125 C 170.445313 419.863281 167.09375 420.140625 163.777344 420.140625 C 159.457031 420.140625 155.476563 419.574219 151.835938 418.449219 C 148.195313 417.320313 145.054688 415.664063 142.417969 413.484375 C 139.78125 411.304688 137.722656 408.671875 136.242188 405.585938 C 134.757813 402.503906 134.019531 399.03125 134.019531 395.167969 C 134.019531 390.40625 134.808594 386.234375 136.394531 382.648438 C 137.976563 379.0625 140.164063 376.082031 142.953125 373.699219 C 145.742188 371.316406 149.042969 369.523438 152.863281 368.320313 C 156.683594 367.117188 160.804688 366.515625 165.226563 366.515625 C 169.046875 366.515625 172.351563 366.902344 175.140625 367.671875 C 177.929688 368.441406 180.679688 369.550781 183.394531 370.992188 C 182.992188 372.296875 182.601563 373.574219 182.226563 374.828125 C 181.847656 376.082031 181.535156 377.359375 181.285156 378.664063 L 180.230469 378.664063 C 178.621094 376.40625 176.609375 374.589844 174.199219 373.210938 "/>
</g>
<g clip-path="url(#clip3)" clip-rule="nonzero">
<path style=" stroke:none;fill-rule:nonzero;fill:rgb(0%,44.299316%,71.398926%);fill-opacity:1;" d="M 209.722656 419.125 C 206.9375 418.449219 204.511719 417.320313 202.453125 415.742188 C 200.394531 414.164063 198.773438 412.132813 197.59375 409.652344 C 196.414063 407.171875 195.824219 404.152344 195.824219 400.59375 C 195.824219 398.589844 195.824219 396.796875 195.824219 395.21875 C 195.824219 393.640625 195.824219 392.175781 195.824219 390.820313 C 195.824219 389.46875 195.84375 388.164063 195.886719 386.910156 C 195.929688 385.660156 195.949219 384.355469 195.949219 383 C 195.949219 378.941406 195.929688 375.660156 195.886719 373.152344 C 195.84375 370.648438 195.78125 368.769531 195.699219 367.515625 C 196.699219 367.617188 197.722656 367.703125 198.773438 367.777344 C 199.824219 367.851563 200.851563 367.890625 201.851563 367.890625 C 202.851563 367.890625 203.875 367.851563 204.925781 367.777344 C 205.976563 367.703125 207 367.617188 208.003906 367.515625 C 207.5 372.375 207.199219 376.894531 207.101563 381.074219 C 207 385.257813 206.949219 389.5 206.949219 393.804688 C 206.949219 398.363281 207.277344 402.042969 207.929688 404.847656 C 208.585938 407.652344 209.554688 409.820313 210.835938 411.347656 C 212.117188 412.875 213.691406 413.890625 215.554688 414.390625 C 217.414063 414.890625 219.578125 415.140625 222.042969 415.140625 C 225.0625 415.140625 227.425781 414.390625 229.136719 412.886719 C 230.847656 411.382813 232.144531 409.378906 233.023438 406.875 C 233.90625 404.371094 234.445313 401.507813 234.648438 398.277344 C 234.847656 395.046875 234.949219 391.679688 234.949219 388.171875 C 234.949219 384.71875 234.898438 381.273438 234.792969 377.84375 C 234.6875 374.414063 234.53125 370.972656 234.324219 367.515625 C 235.027344 367.617188 235.707031 367.703125 236.363281 367.777344 C 237.015625 367.851563 237.621094 367.890625 238.175781 367.890625 C 238.828125 367.890625 239.457031 367.851563 240.0625 367.777344 C 240.667969 367.703125 241.296875 367.617188 241.949219 367.515625 C 241.847656 368.617188 241.742188 370.097656 241.640625 371.949219 C 241.539063 373.804688 241.4375 375.949219 241.335938 378.378906 C 241.230469 380.808594 241.140625 383.492188 241.066406 386.421875 C 240.988281 389.355469 240.949219 392.449219 240.949219 395.707031 C 240.949219 404.429688 239.066406 410.679688 235.300781 414.464844 C 231.53125 418.25 226.007813 420.140625 218.726563 420.140625 C 215.511719 420.140625 212.511719 419.800781 209.722656 419.125 "/>
</g>
<path style=" stroke:none;fill-rule:nonzero;fill:rgb(0%,44.299316%,71.398926%);fill-opacity:1;" d="M 253.382813 377.246094 C 253.300781 374.015625 253.175781 370.773438 253.007813 367.515625 C 255.265625 367.566406 257.5 367.640625 259.710938 367.738281 C 261.917969 367.839844 264.152344 367.890625 266.414063 367.890625 C 270.125 367.890625 273.421875 367.851563 276.308594 367.777344 C 279.191406 367.703125 281.136719 367.617188 282.140625 367.515625 C 281.9375 368.3125 281.839844 369.359375 281.839844 370.652344 C 281.839844 371.449219 281.863281 372.074219 281.914063 372.519531 C 281.964844 372.96875 282.039063 373.46875 282.140625 374.015625 C 280.683594 373.914063 279.09375 373.816406 277.363281 373.714844 C 275.632813 373.613281 273.949219 373.515625 272.320313 373.414063 C 270.6875 373.3125 269.222656 373.238281 267.914063 373.1875 C 266.613281 373.136719 265.683594 373.113281 265.132813 373.113281 C 264.933594 375.871094 264.820313 378.605469 264.796875 381.3125 C 264.769531 384.023438 264.757813 386.757813 264.757813 389.515625 C 268.019531 389.464844 270.96875 389.386719 273.601563 389.28125 C 276.234375 389.175781 278.980469 389.046875 281.839844 388.890625 C 281.691406 389.746094 281.589844 390.402344 281.539063 390.855469 C 281.488281 391.308594 281.464844 391.785156 281.464844 392.289063 C 281.464844 392.695313 281.503906 393.109375 281.578125 393.539063 C 281.652344 393.96875 281.738281 394.585938 281.839844 395.390625 C 276.121094 394.972656 270.425781 394.765625 264.757813 394.765625 C 264.757813 396.367188 264.738281 397.96875 264.695313 399.570313 C 264.652344 401.171875 264.632813 402.777344 264.632813 404.378906 C 264.632813 407.632813 264.714844 410.761719 264.882813 413.765625 C 267.742188 413.765625 270.605469 413.6875 273.464844 413.53125 C 276.324219 413.375 279.207031 413.117188 282.117188 412.753906 C 282.015625 413.304688 281.941406 413.804688 281.890625 414.257813 C 281.839844 414.707031 281.816406 415.332031 281.816406 416.132813 C 281.816406 416.9375 281.839844 417.5625 281.890625 418.011719 C 281.941406 418.464844 282.015625 418.839844 282.117188 419.140625 C 280.761719 419.097656 279.09375 419.066406 277.113281 419.046875 C 275.128906 419.023438 272.410156 419.015625 268.949219 419.015625 C 265.886719 419.015625 263.40625 419.015625 261.5 419.015625 C 259.648438 419.015625 258.15625 419.015625 257.03125 419.015625 C 255.902344 419.015625 255.050781 419.023438 254.472656 419.046875 C 253.898438 419.066406 253.410156 419.097656 253.007813 419.140625 C 253.175781 416.035156 253.300781 412.867188 253.382813 409.632813 C 253.464844 406.402344 253.507813 402.707031 253.507813 398.550781 L 253.507813 388.328125 C 253.507813 384.171875 253.464844 380.476563 253.382813 377.246094 "/>
</g>
</svg>
